<?xml version="1.0" standalone="no"?>
<!DOCTYPE svg PUBLIC "-//W3C//DTD SVG 20010904//EN"
 "http://www.w3.org/TR/2001/REC-SVG-20010904/DTD/svg10.dtd">
<svg version="1.0" xmlns="http://www.w3.org/2000/svg"
 width="900.000000pt" height="1040.000000pt" viewBox="0 0 900.000000 1040.000000"
 preserveAspectRatio="xMidYMid meet">

<g transform="translate(0.000000,1040.000000) scale(0.100000,-0.100000)"
fill="#000000" stroke="none">
<path d="M3951 10145 c-101 -18 -266 -72 -353 -116 -416 -209 -685 -628 -707
-1099 l-6 -135 -66 110 c-38 62 -69 127 -72 149 -9 55 -26 69 -85 68 -43 -1
-66 -11 -150 -62 -55 -33 -105 -67 -112 -75 -20 -25 -4 -82 29 -99 29 -15 56
-53 163 -226 548 -887 904 -1952 1012 -3025 37 -364 48 -880 26 -1207 -46
-677 -185 -1335 -420 -1993 l-61 -170 -49 -27 c-27 -15 -56 -40 -63 -55 -8
-16 -137 -312 -286 -660 -168 -392 -271 -643 -271 -663 0 -189 459 -316 1340
-371 240 -15 853 -15 1090 0 589 38 958 99 1164 195 119 55 184 126 173 190
-5 28 -505 1213 -547 1297 -10 19 -36 47 -58 61 -34 23 -48 46 -112 185 -388
841 -611 1756 -661 2711 -30 572 82 1439 272 2107 141 498 419 1161 666 1593
49 84 71 114 90 118 28 7 43 39 43 89 0 28 -6 37 -28 49 -16 8 -47 44 -71 80
-35 54 -55 73 -124 116 -45 28 -92 57 -103 66 -21 14 -23 13 -44 -21 -12 -19
-23 -35 -25 -35 -3 0 -19 13 -37 29 -18 16 -68 43 -110 61 l-76 32 -51 90
c-191 334 -483 551 -856 634 -100 22 -358 27 -464 9z m415 -60 c343 -60 657
-279 834 -580 l24 -40 -52 48 c-46 42 -57 48 -89 45 -58 -5 -54 -28 5 -28 45
0 53 -3 89 -42 85 -93 117 -156 158 -311 27 -99 30 -92 -58 -101 -31 -4 -103
-22 -160 -41 -88 -30 -103 -32 -112 -20 -5 9 -34 41 -63 72 -49 53 -54 57 -74
44 -19 -12 -23 -11 -35 5 -7 10 -13 28 -13 40 0 30 -10 55 -20 49 -5 -3 -4
-20 1 -38 5 -17 9 -35 9 -39 0 -5 -70 -8 -155 -8 -85 0 -155 -4 -155 -8 0 -4
61 -6 136 -4 83 3 144 0 157 -6 12 -6 43 -13 69 -17 49 -6 81 -33 113 -95 14
-26 13 -27 -31 -48 -52 -26 -51 -26 -57 -9 -2 6 -3 5 -2 -4 3 -18 -51 -54 -59
-40 -3 5 -10 39 -15 76 -6 37 -15 73 -22 79 -9 8 -10 5 -5 -14 19 -70 27 -151
17 -164 -15 -18 -4 -44 21 -52 12 -4 18 -12 15 -22 -7 -26 -93 -315 -131 -440
-32 -109 -48 -143 -58 -125 -7 12 59 370 77 418 9 25 15 75 15 133 l0 92 -57
0 c-82 0 -181 -24 -274 -64 l-79 -34 54 102 c57 106 98 147 104 103 5 -29 21
-47 41 -46 11 0 9 3 -6 9 -19 8 -23 17 -23 51 0 40 -1 41 -18 26 -10 -10 -24
-17 -30 -17 -12 0 -62 90 -62 112 0 7 -14 33 -30 58 -16 25 -30 53 -30 63 0 9
-11 22 -24 29 -14 6 -30 24 -37 41 -17 40 -68 61 -132 53 -42 -6 -52 -4 -79
19 -26 22 -37 25 -72 20 -40 -6 -44 -4 -80 35 -37 41 -65 44 -50 6 5 -14 9
-15 15 -4 6 10 17 4 46 -24 34 -33 42 -37 75 -32 31 5 43 2 68 -20 36 -30 33
-29 82 -15 52 14 103 -10 120 -57 7 -20 21 -37 33 -40 21 -6 53 -66 100 -187
l26 -67 -58 -111 c-67 -127 -68 -128 -148 -175 l-60 -36 -189 4 -188 4 -29 34
c-16 19 -37 48 -45 63 -15 29 -15 29 40 83 31 30 63 69 71 87 8 18 10 23 3 12
-7 -11 -41 -49 -75 -86 -35 -36 -63 -74 -63 -84 0 -10 -11 -33 -25 -51 -29
-38 -30 -50 -9 -84 10 -17 13 -18 9 -5 -4 11 -9 27 -12 35 -2 8 7 30 20 48
l25 33 40 -48 40 -48 -48 -140 c-26 -77 -56 -175 -66 -218 -15 -66 -21 -78
-36 -74 -15 4 -18 -1 -17 -31 0 -34 1 -35 11 -14 16 32 31 28 96 -25 66 -54
230 -163 284 -189 33 -15 38 -23 43 -63 4 -25 16 -77 28 -116 12 -38 23 -76
25 -83 7 -24 -62 -41 -169 -43 -98 -1 -110 1 -192 34 -104 42 -209 101 -294
165 -67 51 -80 74 -108 192 -22 94 -20 120 8 121 20 1 20 2 2 6 -28 7 -51 29
-100 98 -108 150 -166 279 -175 385 l-7 75 -1 -72 c-2 -73 -2 -73 -29 -73 -16
0 -34 4 -40 8 -34 22 -45 309 -18 462 89 505 483 903 985 994 104 19 308 19
416 1z m1016 -762 c45 -17 128 -79 128 -94 0 -5 -8 -9 -18 -9 -14 0 -26 -19
-47 -70 -15 -38 -31 -70 -35 -70 -3 0 -11 26 -18 58 -6 31 -22 90 -36 130 -13
39 -22 72 -20 72 2 0 23 -8 46 -17z m303 -97 c45 -25 82 -55 103 -82 37 -50
33 -52 -31 -24 -49 22 -140 42 -132 30 5 -8 -66 -22 -73 -15 -5 5 40 85 48 85
4 0 5 12 2 26 -6 30 -9 31 83 -20z m108 -154 c90 -42 111 -68 60 -74 -22 -2
-34 -15 -62 -65 -19 -34 -37 -60 -41 -58 -4 3 -7 -1 -6 -8 1 -11 -41 -96 -93
-187 -10 -19 -24 -34 -29 -33 -6 1 -7 -7 -4 -19 3 -14 1 -19 -6 -14 -7 4 -10
2 -7 -7 3 -7 -3 -21 -14 -31 -11 -10 -18 -22 -16 -27 8 -12 -37 -99 -48 -92
-6 3 -7 1 -3 -5 4 -6 1 -22 -6 -34 -12 -23 -14 -29 -17 -49 0 -5 -6 -7 -13 -3
-6 4 -8 3 -5 -3 4 -6 0 -26 -8 -44 -8 -19 -15 -29 -15 -24 -1 6 -8 -12 -16
-38 -8 -26 -19 -45 -24 -42 -6 3 -8 0 -5 -7 7 -18 -90 -250 -100 -241 -4 5 -5
3 -2 -3 4 -7 -8 -49 -27 -95 -18 -46 -45 -118 -60 -159 -15 -41 -31 -83 -37
-92 -5 -10 -9 -22 -9 -27 0 -5 -5 -22 -12 -38 -6 -15 -12 -32 -13 -38 -13 -53
-27 -95 -35 -100 -5 -3 -6 -13 -3 -22 5 -12 3 -14 -7 -8 -10 6 -12 4 -7 -8 3
-8 -5 -51 -17 -94 -13 -43 -29 -98 -36 -123 -8 -25 -12 -51 -11 -59 1 -8 -2
-10 -10 -5 -9 5 -10 2 -6 -9 5 -14 -4 -67 -20 -107 -3 -8 -7 -24 -8 -35 -1
-11 -19 -101 -39 -200 -73 -358 -124 -733 -146 -1073 -33 -513 30 -1182 171
-1814 121 -541 327 -1134 544 -1568 36 -71 65 -133 65 -136 0 -3 -11 -4 -24
-2 -18 4 -23 1 -18 -10 4 -11 1 -13 -9 -8 -8 4 -6 1 4 -7 16 -13 12 -16 -40
-36 -32 -12 -60 -20 -63 -19 -3 1 -16 -5 -30 -15 -24 -17 -85 -22 -127 -11
-24 7 -39 48 -140 399 -102 355 -229 877 -218 895 4 6 2 10 -3 10 -12 0 -34
124 -25 146 4 11 3 15 -4 11 -6 -4 -13 7 -16 26 -3 17 -20 108 -37 201 -17 93
-29 175 -26 182 3 8 2 14 -2 14 -12 0 -36 205 -27 220 5 8 4 11 -2 7 -12 -8
-28 161 -18 195 4 15 3 19 -3 10 -10 -14 -28 205 -42 508 -16 363 18 1231 65
1642 61 530 373 1461 762 2270 72 150 75 159 59 177 -27 29 -94 57 -108 43 -9
-9 -7 -16 5 -30 23 -26 21 -41 -8 -54 -35 -16 -145 -245 -262 -543 -76 -192
-286 -821 -328 -980 -71 -266 -115 -527 -149 -875 -84 -854 -88 -1678 -10
-2360 55 -484 227 -1260 426 -1915 33 -110 61 -207 62 -215 1 -12 -40 -19
-221 -39 -209 -22 -301 -22 -288 -1 3 6 0 7 -7 5 -21 -8 -62 40 -55 65 3 11 2
20 -2 20 -10 0 -42 275 -34 297 3 10 2 15 -3 10 -11 -11 -102 683 -119 913 -3
41 -12 140 -20 220 -13 134 -25 349 -41 740 -13 338 -16 1154 -5 1458 l12 314
41 54 c31 41 44 52 51 42 6 -9 6 -6 1 7 -4 11 -10 155 -14 320 l-5 300 -30
-240 c-35 -281 -44 -252 -20 69 32 438 73 782 136 1131 31 171 105 401 149
464 10 14 26 56 35 93 10 37 22 65 27 62 5 -3 6 6 2 22 -5 21 -4 25 6 19 9 -6
11 -4 6 4 -8 13 102 371 117 382 4 3 -22 29 -58 57 l-66 51 66 36 c133 75 297
134 418 150 45 6 54 3 103 -29 45 -30 56 -34 60 -21 4 8 1 22 -6 31 -10 11
-10 18 -2 26 19 19 165 58 202 54 19 -2 74 -22 123 -44z m-3113 -22 c0 -6 -7
-13 -15 -16 -12 -5 -10 -10 11 -26 14 -11 23 -23 20 -25 -3 -3 2 -12 10 -20 8
-9 13 -22 10 -30 -4 -9 -2 -11 6 -7 8 5 9 2 5 -9 -3 -9 -1 -19 5 -23 7 -5 8
-2 4 7 -4 8 2 3 13 -10 12 -12 18 -27 15 -32 -3 -5 -1 -9 3 -9 16 0 75 -108
67 -122 -4 -7 -3 -10 1 -5 12 10 87 -123 82 -145 -3 -9 0 -16 5 -15 6 1 13 -4
16 -12 3 -10 0 -11 -9 -5 -11 6 -12 5 -2 -7 7 -8 35 -68 62 -133 28 -64 79
-164 113 -221 103 -171 118 -199 113 -213 -3 -8 0 -10 7 -6 8 5 9 2 5 -9 -3
-10 -3 -17 2 -17 11 0 32 -50 26 -61 -4 -5 -2 -9 4 -9 7 0 27 -44 36 -80 1 -3
12 -27 24 -55 13 -27 24 -57 25 -65 1 -8 8 -28 15 -45 30 -67 40 -93 62 -160
13 -38 24 -72 24 -75 1 -3 7 -18 14 -34 6 -16 13 -39 14 -50 1 -12 5 -23 9
-26 7 -5 90 -275 93 -300 0 -9 4 -20 7 -26 20 -32 172 -684 166 -712 0 -4 2
-14 5 -22 10 -25 38 -202 32 -208 -3 -3 0 -11 6 -18 6 -7 11 -44 12 -82 1 -39
5 -68 8 -66 6 3 31 -216 27 -233 -1 -4 3 -26 10 -48 35 -127 40 -930 7 -1290
-61 -681 -209 -1349 -437 -1972 l-71 -193 -93 0 c-60 0 -94 4 -94 11 0 5 5 7
11 3 7 -4 10 -1 7 7 -3 8 4 37 14 64 11 28 36 95 55 150 20 55 39 102 42 105
3 3 7 12 7 20 1 12 90 292 111 350 4 8 7 20 9 27 13 65 40 153 46 153 4 0 5 7
2 15 -4 8 -2 15 3 15 6 0 10 17 11 37 1 21 6 39 12 41 6 2 8 8 5 12 -5 9 18
115 32 150 3 8 5 21 4 29 -1 7 2 10 8 6 6 -3 9 0 5 9 -3 8 9 85 26 172 138
696 171 1370 105 2101 -8 88 -12 169 -9 180 4 12 3 14 -3 6 -5 -8 -13 28 -21
95 -7 59 -24 171 -38 250 -13 79 -22 148 -19 153 4 5 1 9 -4 9 -6 0 -11 9 -11
21 0 63 -159 700 -206 824 -6 16 -5 18 7 10 10 -7 10 -5 -1 5 -24 22 -32 51
-19 66 9 11 9 13 -2 9 -17 -6 -64 118 -53 138 4 7 3 9 -1 4 -8 -6 -61 123 -68
163 -1 8 -5 20 -9 25 -8 14 -74 175 -83 204 -5 18 -4 22 5 16 9 -5 11 -4 6 4
-4 6 -11 9 -15 7 -13 -8 -42 64 -36 88 4 14 3 17 -3 8 -7 -11 -10 -10 -16 3
-3 9 -3 22 1 27 3 7 1 8 -5 4 -12 -7 -17 11 -13 43 2 7 -2 10 -7 7 -12 -7 -44
62 -36 76 4 7 2 8 -4 4 -8 -5 -12 0 -12 13 0 11 -5 23 -10 26 -8 5 -7 11 1 21
10 12 9 13 -6 8 -13 -5 -16 -4 -11 4 4 7 3 12 -2 12 -9 0 -25 37 -23 53 1 4
-4 7 -10 7 -5 0 -7 5 -4 10 3 6 1 10 -5 10 -7 0 -9 7 -6 16 3 8 2 12 -3 9 -16
-10 -23 15 -9 32 10 14 10 15 0 9 -8 -5 -18 -1 -27 10 -15 21 -10 38 7 28 7
-4 8 -2 4 5 -4 6 -11 9 -16 6 -12 -8 -33 23 -24 37 4 7 3 10 -1 5 -10 -9 -88
130 -80 143 3 5 0 12 -6 16 -8 4 -9 3 -5 -4 4 -7 5 -12 2 -12 -3 0 -10 9 -16
20 -9 16 -8 19 7 14 14 -4 13 -3 -2 6 -33 20 -46 42 -34 56 7 8 6 14 -2 20 -8
4 -9 3 -5 -4 4 -7 3 -12 -2 -12 -10 0 -26 30 -23 43 0 4 -6 10 -14 13 -8 4
-15 12 -15 19 0 7 -6 18 -14 25 -8 6 -12 19 -9 27 4 9 2 14 -3 10 -10 -6 -131
180 -127 193 1 4 -10 7 -24 6 -48 -2 -34 18 50 71 78 49 147 69 147 43z m2030
-273 c0 -46 -4 -87 -10 -93 -29 -29 -146 -750 -189 -1174 -41 -390 -55 -608
-103 -1560 -19 -378 -16 -1519 5 -1985 29 -637 96 -1629 127 -1898 6 -48 7
-93 4 -99 -5 -8 -91 -9 -298 -4 -160 4 -291 8 -292 9 -1 1 11 85 27 187 79
511 147 1265 179 1975 6 132 15 330 21 440 16 338 23 1456 10 1825 -6 184 -14
596 -16 915 -3 319 -10 704 -16 855 -11 255 -13 276 -31 289 -17 11 -19 21
-14 70 3 31 6 64 6 74 1 20 16 23 24 5 3 -7 3 -3 0 9 -7 29 40 63 195 142 137
70 225 96 329 100 l42 1 0 -83z m-611 -103 l32 -7 -23 -24 c-32 -34 -40 -163
-12 -194 15 -17 20 -45 25 -152 4 -73 8 -159 8 -193 l1 -61 -50 -27 c-48 -26
-50 -26 -82 -10 -67 34 -261 167 -337 231 -7 5 25 127 70 271 22 68 39 129 39
135 0 31 25 37 161 37 75 0 151 -3 168 -6z m-1015 -136 c29 -75 87 -171 161
-269 33 -43 41 -62 38 -85 -2 -16 7 -66 20 -111 13 -46 21 -83 18 -82 -11 1
-122 134 -163 194 -88 132 -182 364 -165 408 4 10 17 17 35 17 26 0 31 -6 56
-72z m1586 -335 c0 -28 -88 -454 -95 -462 -4 -3 -4 5 -1 19 3 14 10 61 16 105
27 219 53 355 66 355 8 0 14 -8 14 -17z m-531 -365 c1 -76 -2 -98 -12 -98 -18
0 -43 57 -62 140 -20 90 -20 93 23 118 l37 21 7 -42 c3 -23 7 -86 7 -139z
m-764 22 c21 -34 235 -157 340 -195 28 -10 62 -29 77 -43 21 -19 53 -29 171
-50 l144 -26 7 -405 c4 -223 11 -550 16 -726 36 -1243 -25 -2776 -151 -3847
l-23 -187 -50 -5 c-229 -22 -400 -35 -404 -32 -2 2 19 73 46 158 278 847 407
1697 389 2543 -10 423 -34 690 -98 1070 -94 560 -263 1161 -473 1679 -20 50
-36 91 -36 93 0 7 39 -17 45 -27z m1082 -1632 c-3 -7 -5 -2 -5 12 0 14 2 19 5
13 2 -7 2 -19 0 -25z m117 -3925 c3 -16 11 -84 17 -153 10 -106 16 -127 34
-146 27 -27 113 -54 170 -54 81 0 437 41 458 52 12 7 48 11 79 10 82 -3 218
52 270 109 20 22 38 37 41 32 3 -4 23 -51 45 -103 72 -173 273 -644 287 -675
8 -16 60 -138 116 -270 94 -223 100 -242 88 -265 -44 -77 -244 -158 -504 -204
-662 -115 -1682 -128 -2440 -30 -355 46 -641 142 -682 229 l-16 34 273 638
c247 578 306 701 326 681 3 -4 1 -23 -6 -43 -20 -59 -8 -65 134 -65 138 0 387
16 430 28 16 5 31 13 33 19 6 17 -91 49 -201 67 -54 8 -100 17 -103 19 -2 2 1
16 6 30 7 19 19 27 43 31 128 22 486 52 495 42 3 -3 -6 -81 -20 -173 l-26
-168 20 -17 c19 -16 50 -18 319 -18 250 0 300 2 310 15 9 11 10 46 1 157 -7
79 -14 160 -17 181 -7 43 11 52 20 10z"/>
<path d="M3912 9759 c-42 -38 -34 -51 8 -15 17 14 39 26 48 26 15 0 15 2 2 10
-21 13 -21 13 -58 -21z"/>
<path d="M3735 9764 c-12 -9 -30 -12 -46 -9 -22 5 -32 0 -59 -35 -31 -39 -31
-40 -7 -29 14 6 30 22 36 35 8 19 16 23 35 18 31 -7 62 2 70 21 7 19 -3 19
-29 -1z"/>
<path d="M3333 9695 c-48 -32 -83 -69 -83 -87 0 -16 38 -7 56 13 10 12 38 35
62 51 40 28 56 58 29 58 -7 0 -36 -16 -64 -35z"/>
<path d="M3940 9716 c0 -2 8 -10 18 -17 15 -13 16 -12 3 4 -13 16 -21 21 -21
13z"/>
<path d="M3453 9666 c1 -29 -5 -43 -23 -59 -14 -11 -19 -18 -11 -15 8 2 23 16
34 30 16 21 17 31 9 54 -9 28 -9 28 -9 -10z"/>
<path d="M4980 9645 c19 -19 38 -35 44 -35 5 0 -5 16 -24 35 -19 19 -38 35
-44 35 -5 0 5 -16 24 -35z"/>
<path d="M3511 9625 c-11 -19 -17 -35 -12 -35 5 0 14 13 21 29 6 17 19 32 28
34 16 4 16 5 0 6 -9 0 -25 -15 -37 -34z"/>
<path d="M5040 9616 c0 -2 8 -10 18 -17 15 -13 16 -12 3 4 -13 16 -21 21 -21
13z"/>
<path d="M3558 9588 c6 -6 18 -8 28 -6 14 3 12 5 -9 10 -19 3 -25 2 -19 -4z"/>
<path d="M3301 9562 c-8 -18 -11 -35 -8 -38 8 -9 29 35 25 54 -2 12 -8 7 -17
-16z"/>
<path d="M3580 9419 c-10 -18 -9 -33 5 -81 10 -32 20 -56 23 -54 2 3 -3 27
-13 55 -13 39 -14 55 -5 71 6 12 9 24 7 27 -3 2 -11 -5 -17 -18z"/>
<path d="M4580 9268 c-44 -46 -80 -87 -80 -93 0 -5 36 28 79 75 l79 85 36 -34
c21 -20 38 -49 42 -68 3 -18 12 -33 19 -33 20 0 -3 69 -34 103 -51 56 -54 56
-141 -35z"/>
<path d="M4950 9315 c-7 -9 -9 -22 -4 -32 7 -16 8 -16 11 3 2 12 14 26 26 32
l22 11 -21 0 c-12 1 -27 -6 -34 -14z"/>
<path d="M4045 9269 c-22 -21 -56 -46 -75 -56 -19 -10 -48 -28 -65 -40 -16
-12 -57 -31 -90 -43 -41 -14 -49 -19 -25 -16 48 8 183 79 244 129 28 23 53 43
55 44 1 1 1 6 0 11 -2 5 -22 -8 -44 -29z"/>
<path d="M3611 9254 c0 -11 3 -14 6 -6 3 7 2 16 -1 19 -3 4 -6 -2 -5 -13z"/>
<path d="M3620 9216 c0 -3 16 -26 35 -52 19 -25 35 -41 35 -36 0 6 -16 29 -35
52 -19 23 -35 39 -35 36z"/>
<path d="M3690 9103 c0 -6 8 -17 18 -24 16 -13 16 -13 2 6 -8 11 -16 22 -17
24 -2 2 -3 0 -3 -6z"/>
<path d="M3016 8929 c-17 -17 -23 -29 -15 -29 18 1 59 35 59 49 0 17 -12 11
-44 -20z"/>
<path d="M3065 8855 c-4 -36 -5 -69 -1 -72 3 -4 6 5 6 19 0 14 6 46 14 71 12
39 12 47 1 47 -9 0 -16 -21 -20 -65z"/>
<path d="M3677 8565 c3 -27 7 -52 9 -54 7 -8 2 54 -6 79 -6 17 -7 9 -3 -25z"/>
<path d="M3636 8453 l-38 -43 10 -57 11 -58 -5 59 c-6 57 -5 59 32 97 21 21
36 40 33 42 -2 2 -21 -16 -43 -40z"/>
<path d="M3586 8163 c-6 -14 -5 -15 5 -6 7 7 10 15 7 18 -3 3 -9 -2 -12 -12z"/>
<path d="M5607 9197 c-3 -8 1 -14 8 -14 7 0 11 6 8 14 -3 7 -6 13 -8 13 -2 0
-5 -6 -8 -13z"/>
<path d="M5646 8934 c-5 -14 -4 -15 9 -4 17 14 19 20 6 20 -5 0 -12 -7 -15
-16z"/>
<path d="M5555 8680 c-3 -5 -1 -10 4 -10 6 0 11 5 11 10 0 6 -2 10 -4 10 -3 0
-8 -4 -11 -10z"/>
<path d="M5495 8570 c3 -5 8 -10 11 -10 2 0 4 5 4 10 0 6 -5 10 -11 10 -5 0
-7 -4 -4 -10z"/>
<path d="M5450 8460 c-6 -11 -8 -20 -6 -20 3 0 10 9 16 20 6 11 8 20 6 20 -3
0 -10 -9 -16 -20z"/>
<path d="M5415 8379 c-4 -6 -5 -12 -2 -15 2 -3 7 2 10 11 7 17 1 20 -8 4z"/>
<path d="M5385 8300 c-3 -5 -1 -10 4 -10 6 0 11 5 11 10 0 6 -2 10 -4 10 -3 0
-8 -4 -11 -10z"/>
<path d="M5366 8253 c-6 -14 -5 -15 5 -6 7 7 10 15 7 18 -3 3 -9 -2 -12 -12z"/>
<path d="M5326 8078 c3 -5 10 -6 15 -3 13 9 11 12 -6 12 -8 0 -12 -4 -9 -9z"/>
<path d="M5185 7719 c-4 -6 -5 -12 -2 -15 2 -3 7 2 10 11 7 17 1 20 -8 4z"/>
<path d="M5165 7659 c-4 -6 -5 -12 -2 -15 2 -3 7 2 10 11 7 17 1 20 -8 4z"/>
<path d="M5137 7563 c-4 -3 -7 -11 -7 -17 0 -6 5 -5 12 2 6 6 9 14 7 17 -3 3
-9 2 -12 -2z"/>
<path d="M5111 7474 c0 -11 3 -14 6 -6 3 7 2 16 -1 19 -3 4 -6 -2 -5 -13z"/>
<path d="M4685 7469 c-4 -6 -5 -12 -2 -15 2 -3 7 2 10 11 7 17 1 20 -8 4z"/>
<path d="M4655 7349 c-4 -6 -5 -12 -2 -15 2 -3 7 2 10 11 7 17 1 20 -8 4z"/>
<path d="M4651 7224 c0 -11 3 -14 6 -6 3 7 2 16 -1 19 -3 4 -6 -2 -5 -13z"/>
<path d="M4997 7053 c-4 -3 -7 -11 -7 -17 0 -6 5 -5 12 2 6 6 9 14 7 17 -3 3
-9 2 -12 -2z"/>
<path d="M4532 6790 c0 -14 2 -19 5 -12 2 6 2 18 0 25 -3 6 -5 1 -5 -13z"/>
<path d="M4896 6615 c-3 -9 -6 -22 -5 -28 0 -7 5 -1 10 12 5 13 8 26 5 28 -2
2 -6 -3 -10 -12z"/>
<path d="M4871 6494 c0 -11 3 -14 6 -6 3 7 2 16 -1 19 -3 4 -6 -2 -5 -13z"/>
<path d="M4811 6124 c0 -11 3 -14 6 -6 3 7 2 16 -1 19 -3 4 -6 -2 -5 -13z"/>
<path d="M4524 6099 c-4 -7 -3 -9 4 -5 5 3 13 0 15 -6 4 -9 6 -10 6 -1 1 17
-16 25 -25 12z"/>
<path d="M4802 6050 c0 -14 2 -19 5 -12 2 6 2 18 0 25 -3 6 -5 1 -5 -13z"/>
<path d="M4791 5974 c0 -11 3 -14 6 -6 3 7 2 16 -1 19 -3 4 -6 -2 -5 -13z"/>
<path d="M4781 5884 c0 -11 3 -14 6 -6 3 7 2 16 -1 19 -3 4 -6 -2 -5 -13z"/>
<path d="M4777 5803 c-4 -3 -7 -18 -6 -32 1 -26 1 -25 10 3 9 31 7 41 -4 29z"/>
<path d="M4762 5650 c0 -19 2 -27 5 -17 2 9 2 25 0 35 -3 9 -5 1 -5 -18z"/>
<path d="M4753 5460 c0 -36 2 -50 4 -32 2 17 2 47 0 65 -2 17 -4 3 -4 -33z"/>
<path d="M4753 5090 c0 -41 2 -58 4 -37 2 20 2 54 0 75 -2 20 -4 3 -4 -38z"/>
<path d="M4762 4850 c0 -19 2 -27 5 -17 2 9 2 25 0 35 -3 9 -5 1 -5 -18z"/>
<path d="M4772 4690 c0 -14 2 -19 5 -12 2 6 2 18 0 25 -3 6 -5 1 -5 -13z"/>
<path d="M4781 4584 c0 -11 3 -14 6 -6 3 7 2 16 -1 19 -3 4 -6 -2 -5 -13z"/>
<path d="M5011 3284 c0 -11 3 -14 6 -6 3 7 2 16 -1 19 -3 4 -6 -2 -5 -13z"/>
<path d="M5101 3044 c0 -11 3 -14 6 -6 3 7 2 16 -1 19 -3 4 -6 -2 -5 -13z"/>
<path d="M5050 3046 c0 -2 7 -7 16 -10 8 -3 12 -2 9 4 -6 10 -25 14 -25 6z"/>
<path d="M5100 2870 c0 -5 5 -10 11 -10 5 0 7 5 4 10 -3 6 -8 10 -11 10 -2 0
-4 -4 -4 -10z"/>
<path d="M5375 2509 c-4 -6 -5 -12 -2 -15 2 -3 7 2 10 11 7 17 1 20 -8 4z"/>
<path d="M5245 2420 c3 -5 8 -10 11 -10 2 0 4 5 4 10 0 6 -5 10 -11 10 -5 0
-7 -4 -4 -10z"/>
<path d="M5257 2379 c4 -13 8 -18 11 -10 2 7 -1 18 -6 23 -8 8 -9 4 -5 -13z"/>
<path d="M5330 2261 c0 -6 4 -13 10 -16 6 -3 7 1 4 9 -7 18 -14 21 -14 7z"/>
<path d="M5335 2189 c-4 -6 -5 -12 -2 -15 2 -3 7 2 10 11 7 17 1 20 -8 4z"/>
<path d="M2733 8575 c0 -8 4 -12 9 -9 5 3 6 10 3 15 -9 13 -12 11 -12 -6z"/>
<path d="M3358 7183 c6 -2 9 -10 6 -15 -4 -7 -2 -8 5 -4 13 9 5 26 -12 25 -9
0 -8 -2 1 -6z"/>
<path d="M3771 5694 c0 -11 3 -14 6 -6 3 7 2 16 -1 19 -3 4 -6 -2 -5 -13z"/>
<path d="M3640 3571 c0 -6 4 -13 10 -16 6 -3 7 1 4 9 -7 18 -14 21 -14 7z"/>
<path d="M3885 8420 c-58 -133 -58 -133 -85 -141 -23 -7 -23 -7 7 -8 25 -1 33
4 39 22 3 12 24 59 46 105 21 46 38 90 36 99 -2 8 -21 -27 -43 -77z"/>
<path d="M5168 1623 c7 -3 16 -2 19 1 4 3 -2 6 -13 5 -11 0 -14 -3 -6 -6z"/>
<path d="M4027 1571 l-22 -52 -87 3 c-97 3 -98 3 -98 -74 0 -27 4 -38 15 -38
11 0 15 11 15 40 l0 40 93 0 92 0 21 55 c19 46 20 56 8 66 -12 10 -18 3 -37
-40z"/>
<path d="M5104 1596 c-8 -35 3 -61 32 -74 38 -18 39 -15 4 15 -26 21 -31 31
-26 55 7 34 -1 38 -10 4z"/>
<path d="M4276 1573 c-3 -21 -8 -130 -11 -243 -3 -113 -8 -217 -11 -232 l-6
-28 -75 7 c-63 5 -75 4 -71 -8 3 -10 27 -15 90 -17 l85 -3 6 103 c16 254 19
445 9 452 -6 4 -12 -9 -16 -31z"/>
<path d="M4734 1560 l-18 -50 -93 0 -93 0 0 -55 c0 -30 5 -55 10 -55 6 0 10
18 10 40 l0 40 88 0 89 0 18 60 c22 74 14 90 -11 20z"/>
<path d="M4818 1590 c-12 -19 -128 -495 -128 -526 0 -11 161 3 173 15 8 8 -10
11 -65 11 l-75 0 59 252 c32 138 57 256 55 262 -2 6 -11 -1 -19 -14z"/>
<path d="M5197 1590 c-3 -11 -1 -23 4 -26 5 -3 9 6 9 20 0 31 -6 34 -13 6z"/>
<path d="M5131 1593 c0 -5 4 -17 9 -28 8 -18 9 -17 9 8 1 15 -3 27 -9 27 -5 0
-10 -3 -9 -7z"/>
<path d="M5166 1555 c-3 -9 0 -15 9 -15 16 0 20 16 6 24 -5 3 -11 -1 -15 -9z"/>
<path d="M4938 1450 c-7 -45 40 -170 64 -170 10 0 18 2 18 4 0 8 -60 168 -69
184 -6 11 -10 6 -13 -18z"/>
<path d="M3932 1341 l-20 -50 -55 6 -54 6 -7 -69 c-4 -38 -10 -84 -13 -101
l-5 -33 -71 0 c-97 0 -75 -23 27 -28 l74 -4 6 63 c4 35 9 81 13 103 l5 38 52
-6 52 -6 26 54 c20 40 24 56 15 65 -18 18 -23 14 -45 -38z"/>
<path d="M4665 1341 l-17 -51 -59 0 -59 0 0 -105 0 -105 -76 0 c-56 0 -75 -3
-72 -12 3 -9 32 -14 86 -16 l82 -3 0 100 0 100 57 3 56 3 18 54 c12 33 15 59
10 69 -6 11 -13 2 -26 -37z"/>
<path d="M4968 1173 c-55 -3 -78 -8 -82 -18 -4 -12 9 -15 74 -15 77 0 80 -1
86 -25 6 -24 10 -25 79 -25 55 0 76 4 86 17 13 15 8 16 -54 11 l-68 -6 -17 34
c-8 19 -18 33 -21 32 -3 -1 -40 -4 -83 -5z"/>
<path d="M5130 1005 c-9 -48 8 -135 26 -135 16 0 19 16 4 25 -5 3 -10 23 -11
43 0 35 -16 88 -19 67z"/>
<path d="M3653 974 c-9 -15 -12 -31 -8 -41 7 -17 8 -16 13 2 7 35 24 47 54 41
19 -4 28 -1 28 7 0 8 -14 13 -35 14 -27 1 -40 -5 -52 -23z"/>
<path d="M3768 955 c-6 -49 -4 -64 8 -53 3 3 4 28 2 54 l-3 49 -7 -50z"/>
<path d="M5079 948 c2 -35 6 -47 12 -36 9 16 1 88 -10 88 -3 0 -4 -23 -2 -52z"/>
<path d="M5182 991 c4 -13 18 -16 19 -4 0 4 -5 9 -11 12 -7 2 -11 -2 -8 -8z"/>
<path d="M4997 938 c3 -29 10 -59 16 -65 12 -16 73 -17 82 -3 4 7 -2 9 -18 5
-37 -10 -67 24 -67 75 0 22 -4 40 -10 40 -5 0 -7 -22 -3 -52z"/>
<path d="M3860 938 c0 -49 5 -47 13 5 3 20 2 37 -4 37 -5 0 -9 -19 -9 -42z"/>
<path d="M3944 931 c-8 -59 -22 -75 -64 -69 -24 4 -27 2 -19 -9 15 -17 54 -17
72 2 15 15 34 112 24 122 -4 3 -9 -18 -13 -46z"/>
<path d="M4925 971 c-3 -5 6 -8 20 -7 35 4 44 16 12 16 -14 0 -28 -4 -32 -9z"/>
<path d="M4000 955 c0 -9 6 -12 15 -9 8 4 15 10 15 15 0 5 -7 9 -15 9 -8 0
-15 -7 -15 -15z"/>
<path d="M4730 960 c0 -5 7 -10 15 -10 9 0 20 -10 25 -22 8 -22 9 -22 9 -2 1
11 -4 25 -11 32 -15 15 -38 16 -38 2z"/>
<path d="M4367 953 c-15 -14 -6 -23 12 -13 15 8 24 6 37 -8 17 -16 18 -16 11
1 -4 10 -7 21 -7 23 0 7 -46 5 -53 -3z"/>
<path d="M4515 950 c3 -5 10 -10 16 -10 5 0 9 5 9 10 0 6 -7 10 -16 10 -8 0
-12 -4 -9 -10z"/>
<path d="M4692 903 l-2 -63 38 0 c21 0 47 7 58 16 15 12 16 15 2 10 -9 -2 -32
-8 -52 -11 l-35 -7 -4 58 -3 59 -2 -62z"/>
<path d="M4056 935 c-3 -8 -1 -15 4 -15 6 0 10 7 10 15 0 8 -2 15 -4 15 -2 0
-6 -7 -10 -15z"/>
<path d="M5190 940 c-9 -6 -10 -10 -3 -10 6 0 15 5 18 10 8 12 4 12 -15 0z"/>
<path d="M4874 914 c3 -9 6 -19 6 -24 0 -5 7 -16 16 -24 17 -18 84 -22 84 -6
0 6 -13 10 -29 10 -32 0 -61 22 -61 46 0 8 -5 14 -11 14 -6 0 -8 -7 -5 -16z"/>
<path d="M4211 904 c0 -11 3 -14 6 -6 3 7 2 16 -1 19 -3 4 -6 -2 -5 -13z"/>
<path d="M4001 893 c0 -11 3 -13 6 -5 2 6 9 10 14 6 5 -3 9 0 9 5 0 6 -7 11
-15 11 -8 0 -15 -8 -14 -17z"/>
<path d="M4510 900 c0 -5 4 -10 9 -10 5 0 14 -13 20 -30 9 -28 41 -43 41 -20
0 6 -6 10 -14 10 -8 0 -19 14 -25 30 -9 28 -31 42 -31 20z"/>
<path d="M3657 873 c21 -16 76 -17 71 -2 -2 7 -23 12 -46 13 -36 1 -40 -1 -25
-11z"/>
<path d="M4047 867 c-12 -12 -28 -17 -43 -14 -14 2 -27 0 -30 -4 -3 -5 15 -9
41 -9 31 0 47 5 51 15 10 25 0 32 -19 12z"/>
<path d="M3775 870 l-40 -6 39 -7 c23 -5 43 -4 48 1 14 14 -2 19 -47 12z"/>
<path d="M4330 874 c0 -6 9 -19 19 -28 27 -25 80 -18 100 14 15 24 15 25 -4 9
-40 -32 -84 -30 -107 5 -6 8 -8 8 -8 0z"/>
<path d="M4200 862 c0 -7 -9 -12 -20 -12 -11 0 -20 -4 -20 -10 0 -16 40 -11
47 5 3 9 3 19 -1 22 -3 4 -6 1 -6 -5z"/>
<path d="M4245 840 c3 -5 15 -10 26 -10 10 0 19 5 19 10 0 6 -12 10 -26 10
-14 0 -23 -4 -19 -10z"/>
<path d="M4480 840 c0 -5 7 -10 15 -10 8 0 15 5 15 10 0 6 -7 10 -15 10 -8 0
-15 -4 -15 -10z"/>
<path d="M4600 840 c0 -5 18 -10 40 -10 22 0 40 5 40 10 0 6 -18 10 -40 10
-22 0 -40 -4 -40 -10z"/>
<path d="M6454 1291 c-61 -37 -68 -124 -15 -175 70 -68 190 -23 193 72 3 99
-93 155 -178 103z m134 -38 c50 -55 12 -143 -63 -143 -49 0 -74 15 -91 55 -38
93 85 164 154 88z"/>
<path d="M6462 1238 c-13 -13 -16 -57 -4 -75 4 -6 20 -16 35 -22 57 -22 113
31 89 84 -11 24 -42 35 -42 15 0 -5 4 -10 9 -10 16 0 23 -40 11 -55 -15 -18
-61 -20 -78 -3 -17 17 -15 47 3 54 8 4 15 10 15 15 0 13 -24 11 -38 -3z"/>
<path d="M6420 997 c0 -19 12 -27 82 -53 l83 -31 -80 -30 c-69 -27 -80 -35
-83 -57 l-3 -26 100 0 c82 0 101 3 101 15 0 11 -18 15 -82 17 l-83 3 80 31
c45 18 81 38 83 46 2 11 -20 24 -75 44 l-78 29 78 3 c59 2 77 6 77 17 0 12
-19 15 -100 15 -97 0 -100 -1 -100 -23z"/>
<path d="M6420 695 c0 -43 4 -75 10 -75 6 0 10 14 10 30 l0 30 90 0 c73 0 90
3 90 15 0 12 -17 15 -90 15 l-90 0 0 30 c0 17 -4 30 -10 30 -6 0 -10 -32 -10
-75z"/>
</g>
</svg>
